<svg width="200" height="200" viewBox="0 0 200 200" fill="none" xmlns="http://www.w3.org/2000/svg">
  <path d="M100 180C144.183 180 180 144.183 180 100C180 55.8172 144.183 20 100 20C55.8172 20 20 55.8172 20 100C20 144.183 55.8172 180 100 180Z" fill="#E57373" fill-opacity="0.1"/>
  
  <!-- Lotus Flower -->
  <path d="M100 120C100 120 80 100 80 80C80 60 100 50 100 50" stroke="#E57373" stroke-width="2" stroke-linecap="round"/>
  <path d="M100 120C100 120 120 100 120 80C120 60 100 50 100 50" stroke="#E57373" stroke-width="2" stroke-linecap="round"/>
  <path d="M70 80C70 80 80 65 100 65C120 65 130 80 130 80" stroke="#E57373" stroke-width="2" stroke-linecap="round"/>
  <path d="M70 90C70 90 80 105 100 105C120 105 130 90 130 90" stroke="#E57373" stroke-width="2" stroke-linecap="round"/>
  <path d="M85 70C85 70 90 60 100 60C110 60 115 70 115 70" stroke="#E57373" stroke-width="2" stroke-linecap="round"/>
  <path d="M85 100C85 100 90 110 100 110C110 110 115 100 115 100" stroke="#E57373" stroke-width="2" stroke-linecap="round"/>
  <circle cx="100" cy="85" r="10" fill="#E57373"/>
  
  <!-- Krishna's Figure -->
  <path d="M100 50C100 50 95 30 115 35C135 40 120 55 100 50Z" fill="#1A73E8"/>
  <circle cx="110" cy="40" r="5" fill="#1A73E8"/>
  <circle cx="112" cy="38" r="1" fill="white"/>
  <path d="M109 42C110 43 111 43 112 42" stroke="white" stroke-width="0.75" stroke-linecap="round"/>
  
  <!-- Peacock Feather -->
  <path d="M115 35C115 35 125 25 130 28C135 31 130 40 120 45" stroke="#00897B" stroke-width="1.5" stroke-linecap="round"/>
  <path d="M130 28C130 28 132 23 135 26C138 29 132 34 130 28Z" fill="#FFC107"/>
  <circle cx="133" cy="26" r="1.5" fill="#00897B"/>
  
  <!-- Krishna's Hand with Lotus -->
  <path d="M100 50C100 50 90 60 85 70C80 80 85 80 90 75" stroke="#1A73E8" stroke-width="2" stroke-linecap="round"/>
  <path d="M90 75C90 75 95 70 100 85" stroke="#1A73E8" stroke-width="2" stroke-linecap="round"/>
  <path d="M90 75C90 75 80 72 75 75C70 78 75 82 80 80" fill="#1A73E8"/>
  
  <!-- Om Symbol -->
  <path d="M100 160C100 160 95 150 100 145C105 140 110 145 110 150C110 155 105 155 100 160Z" stroke="#FFC107" stroke-width="1.5" fill="none"/>
  <path d="M100 145C100 145 105 135 115 140C125 145 115 155 105 155" stroke="#FFC107" stroke-width="1.5" fill="none"/>
  <path d="M117 142C117 142 125 150 120 155C115 160 105 155 105 155" stroke="#FFC107" stroke-width="1.5" fill="none"/>
</svg> 