<svg width="24" height="24" viewBox="0 0 24 24" fill="none" xmlns="http://www.w3.org/2000/svg">
  <path d="M12 21C16.9706 21 21 16.9706 21 12C21 7.02944 16.9706 3 12 3C7.02944 3 3 7.02944 3 12C3 16.9706 7.02944 21 12 21Z" stroke="currentColor" stroke-width="1.5"/>
  <path d="M12 7C10 7 9 8 9 10C9 12 10.5 14 12 14C13.5 14 15 12 15 10C15 8 14 7 12 7Z" stroke="currentColor" stroke-width="1.5"/>
  <path d="M13 9C13.5 9 14 9.5 14 10" stroke="currentColor" stroke-width="1"/>
  <path d="M10 10C10.5 10 11 10.5 11 11" stroke="currentColor" stroke-width="1"/>
  <path d="M11 12C11.5 12.5 12.5 12.5 13 12" stroke="currentColor" stroke-width="1"/>
  <path d="M14 7C14 7 15 4 16 5C17 6 15 8 14 7Z" stroke="currentColor" stroke-width="1.5"/>
  <path d="M16 5C16 5 17 3 18 4C19 5 17 7 16 5Z" stroke="currentColor" stroke-width="1.5"/>
  <path d="M8 13C7.5 14.5 8 16.5 10 17" stroke="currentColor" stroke-width="1.5"/>
  <path d="M16 13C16.5 14.5 16 16.5 14 17" stroke="currentColor" stroke-width="1.5"/>
  <path d="M10 17C10 18 11 19 12 19C13 19 14 18 14 17" stroke="currentColor" stroke-width="1.5"/>
</svg> 