<svg width="24" height="24" viewBox="0 0 24 24" fill="none" xmlns="http://www.w3.org/2000/svg">
  <path d="M12 5.5C10.5 5.5 9.5 6.5 9.5 8C9.5 9.5 10.5 10.5 12 10.5C13.5 10.5 14.5 9.5 14.5 8C14.5 6.5 13.5 5.5 12 5.5Z" stroke="currentColor" stroke-width="1.5" stroke-linecap="round"/>
  <path d="M12 10.5V12" stroke="currentColor" stroke-width="1.5" stroke-linecap="round"/>
  <path d="M15 14C15 14 12 16.5 8 14" stroke="currentColor" stroke-width="1.5" stroke-linecap="round"/>
  <path d="M9 14C9 14 7 15 7 17C7 18.5 8 20 11 19" stroke="currentColor" stroke-width="1.5" stroke-linecap="round"/>
  <path d="M15 14C15 14 17 15 17 17C17 18.5 16 20 13 19" stroke="currentColor" stroke-width="1.5" stroke-linecap="round"/>
  <path d="M11 19L11 17" stroke="currentColor" stroke-width="1.5" stroke-linecap="round"/>
  <path d="M13 19L13 17" stroke="currentColor" stroke-width="1.5" stroke-linecap="round"/>
  <path d="M15.5 10.5C15.5 10.5 17 12 17 14" stroke="currentColor" stroke-width="1.5" stroke-linecap="round"/>
  <path d="M8.5 10.5C8.5 10.5 7 12 7 14" stroke="currentColor" stroke-width="1.5" stroke-linecap="round"/>
</svg> 