<svg xmlns="http://www.w3.org/2000/svg" width="24" height="24" viewBox="0 0 24 24" fill="none">
  <path d="M11.9982 2C6.47648 2 2 6.47767 2 12C2 17.5223 6.47648 22 11.9982 22C17.5217 22 22 17.5223 22 12C22 6.47767 17.5217 2 11.9982 2Z" stroke="currentColor" stroke-width="0.5" stroke-miterlimit="10"/>
  <path fill-rule="evenodd" clip-rule="evenodd" d="M11.9851 4.47852C10.7903 4.47852 9.86523 5.31616 9.86523 6.35181C9.86523 7.38746 10.7903 8.14877 11.9851 8.14877C13.18 8.14877 14.105 7.38746 14.105 6.35181C14.105 5.31616 13.18 4.47852 11.9851 4.47852ZM16.5117 6.78633C16.1158 6.15211 15.4798 5.69392 14.9498 5.39783C15.073 5.69392 15.1566 6.00258 15.1566 6.35181C15.1566 7.72507 13.7779 8.89445 11.9851 8.89445C10.1924 8.89445 8.81367 7.72507 8.81367 6.35181C8.81367 6.00258 8.89729 5.69392 9.02048 5.39783C8.49049 5.69392 7.85445 6.15211 7.45857 6.78633C6.6894 8.00043 6.59888 9.67655 7.0461 10.9302C7.2487 11.4874 7.80968 13.0682 9.63346 13.8044L9.76454 13.3462C9.27615 13.0878 8.25677 12.3661 8.0346 11.2714C7.87052 10.4507 8.03848 9.60307 8.40289 8.97642C8.76729 8.36235 9.41915 7.81647 9.96494 7.61989C10.3608 7.87542 11.0652 8.14877 11.9851 8.14877C12.905 8.14877 13.6094 7.87542 14.0053 7.61989C14.5511 7.81647 15.203 8.36235 15.5674 8.97642C15.9318 9.60307 16.0997 10.4507 15.9357 11.2714C15.6626 12.5437 14.2839 13.4048 13.6873 13.8698C13.0299 14.4968 12.2804 15.9982 12.5338 17.6711C12.7068 18.8063 13.6071 19.6636 14.2232 20.0951C14.9702 19.7066 16.2879 18.6317 16.9441 16.3867C17.5597 14.2598 17.0298 12.5371 17.0037 12.4381C16.9253 11.8307 16.7525 11.2911 16.5242 10.9302C16.9714 9.67655 16.8809 8.00043 16.1117 6.78633H16.5117ZM13.6677 14.5412V14.5248C14.7209 13.8898 16.3622 12.6363 16.6156 11.1152C16.8822 9.54383 16.0719 8.2213 15.5022 7.48259C16.9975 9.09738 16.907 12.6626 15.9488 14.9431C15.2997 16.4773 14.2036 17.5489 13.3526 18.0948C12.9881 17.6434 12.6236 16.6806 12.5245 15.7572C12.3917 14.5937 12.9684 13.5977 13.6677 14.5412Z" fill="currentColor"/>
</svg> 